<svg width="24" height="25" viewBox="0 0 24 25" fill="none" xmlns="http://www.w3.org/2000/svg">
<path d="M5 10.5021H7C9 10.5021 10 9.50208 10 7.50208V5.50208C10 3.50208 9 2.50208 7 2.50208H5C3 2.50208 2 3.50208 2 5.50208V7.50208C2 9.50208 3 10.5021 5 10.5021Z" stroke="#FD5818" stroke-width="1.5" stroke-miterlimit="10" stroke-linecap="round" stroke-linejoin="round"/>
<path d="M17 10.5021H19C21 10.5021 22 9.50208 22 7.50208V5.50208C22 3.50208 21 2.50208 19 2.50208H17C15 2.50208 14 3.50208 14 5.50208V7.50208C14 9.50208 15 10.5021 17 10.5021Z" stroke="#FD5818" stroke-width="1.5" stroke-miterlimit="10" stroke-linecap="round" stroke-linejoin="round"/>
<path d="M17 22.5021H19C21 22.5021 22 21.5021 22 19.5021V17.5021C22 15.5021 21 14.5021 19 14.5021H17C15 14.5021 14 15.5021 14 17.5021V19.5021C14 21.5021 15 22.5021 17 22.5021Z" stroke="#FD5818" stroke-width="1.5" stroke-miterlimit="10" stroke-linecap="round" stroke-linejoin="round"/>
<path d="M5 22.5021H7C9 22.5021 10 21.5021 10 19.5021V17.5021C10 15.5021 9 14.5021 7 14.5021H5C3 14.5021 2 15.5021 2 17.5021V19.5021C2 21.5021 3 22.5021 5 22.5021Z" stroke="#FD5818" stroke-width="1.5" stroke-miterlimit="10" stroke-linecap="round" stroke-linejoin="round"/>
</svg>
