<svg width="1392" height="356" viewBox="0 0 1392 356" fill="none" xmlns="http://www.w3.org/2000/svg">
<g opacity="0.8">
<path opacity="0.8" d="M2.34206 12.5V11.54H4.05806V5.48L2.45006 6.692L1.86206 5.888L4.34606 4.1H5.13806V11.54H6.56606V12.5H2.34206ZM11.7974 12.644C10.8614 12.644 10.1494 12.264 9.66138 11.504C9.17338 10.736 8.92938 9.664 8.92938 8.288C8.92938 6.904 9.17738 5.836 9.67338 5.084C10.1774 4.332 10.8934 3.956 11.8214 3.956C12.7574 3.956 13.4694 4.336 13.9574 5.096C14.4454 5.856 14.6894 6.928 14.6894 8.312C14.6894 9.696 14.4374 10.764 13.9334 11.516C13.4374 12.268 12.7254 12.644 11.7974 12.644ZM11.8094 11.66C12.1694 11.66 12.4774 11.556 12.7334 11.348C12.9974 11.132 13.1974 10.78 13.3334 10.292C13.4774 9.804 13.5494 9.148 13.5494 8.324C13.5494 7.22 13.3934 6.38 13.0814 5.804C12.7774 5.228 12.3534 4.94 11.8094 4.94C11.4494 4.94 11.1374 5.048 10.8734 5.264C10.6174 5.472 10.4174 5.82 10.2734 6.308C10.1374 6.788 10.0694 7.444 10.0694 8.276C10.0694 9.38 10.2214 10.22 10.5254 10.796C10.8374 11.372 11.2654 11.66 11.8094 11.66ZM19.3927 12.644C18.4567 12.644 17.7447 12.264 17.2567 11.504C16.7687 10.736 16.5247 9.664 16.5247 8.288C16.5247 6.904 16.7727 5.836 17.2687 5.084C17.7727 4.332 18.4887 3.956 19.4167 3.956C20.3527 3.956 21.0647 4.336 21.5527 5.096C22.0407 5.856 22.2847 6.928 22.2847 8.312C22.2847 9.696 22.0327 10.764 21.5287 11.516C21.0327 12.268 20.3207 12.644 19.3927 12.644ZM19.4047 11.66C19.7647 11.66 20.0727 11.556 20.3287 11.348C20.5927 11.132 20.7927 10.78 20.9287 10.292C21.0727 9.804 21.1447 9.148 21.1447 8.324C21.1447 7.22 20.9887 6.38 20.6767 5.804C20.3727 5.228 19.9487 4.94 19.4047 4.94C19.0447 4.94 18.7327 5.048 18.4687 5.264C18.2127 5.472 18.0127 5.82 17.8687 6.308C17.7327 6.788 17.6647 7.444 17.6647 8.276C17.6647 9.38 17.8167 10.22 18.1207 10.796C18.4327 11.372 18.8607 11.66 19.4047 11.66Z" fill="white"/>
<path d="M1390 9H31V8H1390V9Z" fill="#1C1854" fill-opacity="0.08"/>
</g>
<g opacity="0.8">
<path opacity="0.8" d="M2.54938 120.167C2.54938 119.247 2.60938 118.431 2.72938 117.719C2.85738 116.999 3.03738 116.351 3.26938 115.775C3.50938 115.199 3.80538 114.667 4.15738 114.179C4.50938 113.691 4.91338 113.215 5.36938 112.751H1.32538V111.767H6.65338V112.631C6.10138 113.167 5.64138 113.691 5.27338 114.203C4.90538 114.707 4.60938 115.243 4.38538 115.811C4.16138 116.371 4.00138 117.007 3.90538 117.719C3.80938 118.423 3.76138 119.239 3.76138 120.167H2.54938ZM11.3927 120.311C10.4567 120.311 9.74469 119.931 9.25669 119.171C8.76869 118.403 8.52469 117.331 8.52469 115.955C8.52469 114.571 8.77269 113.503 9.26869 112.751C9.77269 111.999 10.4887 111.623 11.4167 111.623C12.3527 111.623 13.0647 112.003 13.5527 112.763C14.0407 113.523 14.2847 114.595 14.2847 115.979C14.2847 117.363 14.0327 118.431 13.5287 119.183C13.0327 119.935 12.3207 120.311 11.3927 120.311ZM11.4047 119.327C11.7647 119.327 12.0727 119.223 12.3287 119.015C12.5927 118.799 12.7927 118.447 12.9287 117.959C13.0727 117.471 13.1447 116.815 13.1447 115.991C13.1447 114.887 12.9887 114.047 12.6767 113.471C12.3727 112.895 11.9487 112.607 11.4047 112.607C11.0447 112.607 10.7327 112.715 10.4687 112.931C10.2127 113.139 10.0127 113.487 9.86869 113.975C9.73269 114.455 9.66469 115.111 9.66469 115.943C9.66469 117.047 9.81669 117.887 10.1207 118.463C10.4327 119.039 10.8607 119.327 11.4047 119.327Z" fill="white"/>
<path d="M1390 116.667H23V115.667H1390V116.667Z" fill="#1C1854" fill-opacity="0.08"/>
</g>
<g opacity="0.8">
<path opacity="0.8" d="M10.3174 227.977C9.79738 227.977 9.34538 227.909 8.96138 227.773C8.57738 227.629 8.24938 227.457 7.97738 227.257L8.46938 226.357C8.69338 226.525 8.95338 226.673 9.24938 226.801C9.54538 226.929 9.90538 226.993 10.3294 226.993C10.8574 226.993 11.2734 226.853 11.5774 226.573C11.8894 226.293 12.0454 225.945 12.0454 225.529C12.0454 225.233 11.9654 224.965 11.8054 224.725C11.6454 224.477 11.3974 224.277 11.0614 224.125C10.7334 223.973 10.3054 223.897 9.77738 223.897H9.10538V223.021H9.72938C10.2014 223.021 10.5894 222.949 10.8934 222.805C11.2054 222.661 11.4374 222.473 11.5894 222.241C11.7414 222.009 11.8174 221.765 11.8174 221.509C11.8174 221.133 11.6734 220.829 11.3854 220.597C11.1054 220.365 10.7574 220.249 10.3414 220.249C9.96538 220.249 9.62938 220.313 9.33338 220.441C9.04538 220.561 8.80938 220.697 8.62538 220.849L8.18138 219.997C8.42138 219.837 8.72938 219.681 9.10538 219.529C9.48138 219.369 9.92138 219.289 10.4254 219.289C10.9534 219.289 11.4014 219.385 11.7694 219.577C12.1374 219.769 12.4174 220.025 12.6094 220.345C12.8094 220.657 12.9094 220.997 12.9094 221.365C12.9094 221.837 12.7894 222.233 12.5494 222.553C12.3174 222.873 11.9854 223.137 11.5534 223.345C12.0574 223.537 12.4494 223.821 12.7294 224.197C13.0174 224.565 13.1614 224.997 13.1614 225.493C13.1614 225.909 13.0574 226.309 12.8494 226.693C12.6494 227.069 12.3374 227.377 11.9134 227.617C11.4974 227.857 10.9654 227.977 10.3174 227.977ZM18.3927 227.977C17.4567 227.977 16.7447 227.597 16.2567 226.837C15.7687 226.069 15.5247 224.997 15.5247 223.621C15.5247 222.237 15.7727 221.169 16.2687 220.417C16.7727 219.665 17.4887 219.289 18.4167 219.289C19.3527 219.289 20.0647 219.669 20.5527 220.429C21.0407 221.189 21.2847 222.261 21.2847 223.645C21.2847 225.029 21.0327 226.097 20.5287 226.849C20.0327 227.601 19.3207 227.977 18.3927 227.977ZM18.4047 226.993C18.7647 226.993 19.0727 226.889 19.3287 226.681C19.5927 226.465 19.7927 226.113 19.9287 225.625C20.0727 225.137 20.1447 224.481 20.1447 223.657C20.1447 222.553 19.9887 221.713 19.6767 221.137C19.3727 220.561 18.9487 220.273 18.4047 220.273C18.0447 220.273 17.7327 220.381 17.4687 220.597C17.2127 220.805 17.0127 221.153 16.8687 221.641C16.7327 222.121 16.6647 222.777 16.6647 223.609C16.6647 224.713 16.8167 225.553 17.1207 226.129C17.4327 226.705 17.8607 226.993 18.4047 226.993Z" fill="white"/>
<path d="M1390 224.333H30V223.333H1390V224.333Z" fill="#1C1854" fill-opacity="0.08"/>
</g>
<path opacity="0.8" d="M18.4047 326.764C17.3727 326.764 16.6047 327.208 16.0887 328.12C15.6327 328.888 15.4047 329.92 15.4047 331.216C15.4047 332.512 15.6327 333.544 16.0887 334.312C16.6047 335.212 17.3727 335.668 18.4047 335.668C19.4247 335.668 20.1927 335.212 20.7207 334.312C21.1767 333.544 21.4047 332.512 21.4047 331.216C21.4047 329.92 21.1767 328.888 20.7207 328.12C20.1927 327.208 19.4247 326.764 18.4047 326.764ZM18.4047 327.604C19.1727 327.604 19.7247 328.012 20.0607 328.84C20.3007 329.416 20.4327 330.208 20.4327 331.216C20.4327 332.212 20.3007 333.004 20.0607 333.592C19.7247 334.408 19.1727 334.828 18.4047 334.828C17.6367 334.828 17.0847 334.408 16.7487 333.592C16.5087 333.004 16.3887 332.212 16.3887 331.216C16.3887 330.208 16.5087 329.416 16.7487 328.84C17.0847 328.012 17.6367 327.604 18.4047 327.604Z" fill="white"/>
<path d="M33.6 343.264C32.568 343.264 31.8 343.708 31.284 344.62C30.828 345.388 30.6 346.42 30.6 347.716C30.6 349.012 30.828 350.044 31.284 350.812C31.8 351.712 32.568 352.168 33.6 352.168C34.62 352.168 35.388 351.712 35.916 350.812C36.372 350.044 36.6 349.012 36.6 347.716C36.6 346.42 36.372 345.388 35.916 344.62C35.388 343.708 34.62 343.264 33.6 343.264ZM33.6 344.104C34.368 344.104 34.92 344.512 35.256 345.34C35.496 345.916 35.628 346.708 35.628 347.716C35.628 348.712 35.496 349.504 35.256 350.092C34.92 350.908 34.368 351.328 33.6 351.328C32.832 351.328 32.28 350.908 31.944 350.092C31.704 349.504 31.584 348.712 31.584 347.716C31.584 346.708 31.704 345.916 31.944 345.34C32.28 344.512 32.832 344.104 33.6 344.104ZM41.1953 343.264C40.1633 343.264 39.3953 343.708 38.8793 344.62C38.4233 345.388 38.1953 346.42 38.1953 347.716C38.1953 349.012 38.4233 350.044 38.8793 350.812C39.3953 351.712 40.1633 352.168 41.1953 352.168C42.2153 352.168 42.9833 351.712 43.5113 350.812C43.9673 350.044 44.1953 349.012 44.1953 347.716C44.1953 346.42 43.9673 345.388 43.5113 344.62C42.9833 343.708 42.2153 343.264 41.1953 343.264ZM41.1953 344.104C41.9633 344.104 42.5153 344.512 42.8513 345.34C43.0913 345.916 43.2233 346.708 43.2233 347.716C43.2233 348.712 43.0913 349.504 42.8513 350.092C42.5153 350.908 41.9633 351.328 41.1953 351.328C40.4273 351.328 39.8753 350.908 39.5393 350.092C39.2993 349.504 39.1793 348.712 39.1793 347.716C39.1793 346.708 39.2993 345.916 39.5393 345.34C39.8753 344.512 40.4273 344.104 41.1953 344.104Z" fill="white"/>
<path d="M202.725 343.264C201.693 343.264 200.925 343.708 200.409 344.62C199.953 345.388 199.725 346.42 199.725 347.716C199.725 349.012 199.953 350.044 200.409 350.812C200.925 351.712 201.693 352.168 202.725 352.168C203.745 352.168 204.513 351.712 205.041 350.812C205.497 350.044 205.725 349.012 205.725 347.716C205.725 346.42 205.497 345.388 205.041 344.62C204.513 343.708 203.745 343.264 202.725 343.264ZM202.725 344.104C203.493 344.104 204.045 344.512 204.381 345.34C204.621 345.916 204.753 346.708 204.753 347.716C204.753 348.712 204.621 349.504 204.381 350.092C204.045 350.908 203.493 351.328 202.725 351.328C201.957 351.328 201.405 350.908 201.069 350.092C200.829 349.504 200.709 348.712 200.709 347.716C200.709 346.708 200.829 345.916 201.069 345.34C201.405 344.512 201.957 344.104 202.725 344.104ZM210.404 343.264C209.588 343.264 208.928 343.492 208.424 343.96C207.896 344.428 207.584 345.076 207.512 345.904H208.484C208.544 345.328 208.736 344.884 209.072 344.572C209.396 344.26 209.84 344.116 210.416 344.116C210.968 344.116 211.412 344.248 211.724 344.536C212.012 344.8 212.168 345.172 212.168 345.652C212.168 346.132 212.012 346.504 211.712 346.768C211.412 347.02 210.98 347.152 210.404 347.152H209.744V347.92H210.44C211.04 347.92 211.496 348.052 211.832 348.34C212.168 348.628 212.336 349.024 212.336 349.54C212.336 350.044 212.156 350.464 211.82 350.8C211.448 351.148 210.956 351.328 210.344 351.328C209.804 351.328 209.36 351.172 209 350.884C208.58 350.536 208.352 350.02 208.328 349.348H207.332C207.404 350.308 207.74 351.04 208.352 351.544C208.868 351.952 209.528 352.168 210.344 352.168C211.232 352.168 211.952 351.916 212.504 351.412C213.044 350.92 213.32 350.284 213.32 349.504C213.32 349 213.176 348.58 212.888 348.244C212.624 347.908 212.24 347.668 211.736 347.512C212.672 347.2 213.14 346.552 213.14 345.592C213.14 344.872 212.888 344.308 212.396 343.888C211.892 343.468 211.22 343.264 210.404 343.264Z" fill="white"/>
<path d="M371.85 343.264C370.818 343.264 370.05 343.708 369.534 344.62C369.078 345.388 368.85 346.42 368.85 347.716C368.85 349.012 369.078 350.044 369.534 350.812C370.05 351.712 370.818 352.168 371.85 352.168C372.87 352.168 373.638 351.712 374.166 350.812C374.622 350.044 374.85 349.012 374.85 347.716C374.85 346.42 374.622 345.388 374.166 344.62C373.638 343.708 372.87 343.264 371.85 343.264ZM371.85 344.104C372.618 344.104 373.17 344.512 373.506 345.34C373.746 345.916 373.878 346.708 373.878 347.716C373.878 348.712 373.746 349.504 373.506 350.092C373.17 350.908 372.618 351.328 371.85 351.328C371.082 351.328 370.53 350.908 370.194 350.092C369.954 349.504 369.834 348.712 369.834 347.716C369.834 346.708 369.954 345.916 370.194 345.34C370.53 344.512 371.082 344.104 371.85 344.104ZM379.565 343.264C378.593 343.264 377.825 343.708 377.261 344.608C376.721 345.46 376.457 346.576 376.457 347.944C376.457 349.252 376.697 350.272 377.201 351.004C377.729 351.772 378.509 352.168 379.553 352.168C380.393 352.168 381.077 351.88 381.629 351.328C382.169 350.776 382.445 350.068 382.445 349.228C382.445 348.388 382.193 347.716 381.701 347.188C381.197 346.66 380.537 346.396 379.721 346.396C379.217 346.396 378.773 346.516 378.389 346.768C377.981 347.008 377.681 347.356 377.465 347.8H377.417C377.405 347.644 377.405 347.536 377.405 347.488C377.405 346.516 377.585 345.712 377.969 345.088C378.353 344.416 378.881 344.092 379.553 344.092C380.549 344.092 381.137 344.572 381.329 345.556H382.301C382.061 344.02 381.149 343.264 379.565 343.264ZM379.529 347.212C380.117 347.212 380.585 347.392 380.945 347.776C381.293 348.136 381.473 348.616 381.473 349.228C381.473 349.84 381.293 350.344 380.933 350.752C380.573 351.136 380.105 351.34 379.529 351.34C378.929 351.34 378.461 351.136 378.101 350.728C377.741 350.344 377.573 349.852 377.573 349.252C377.573 348.652 377.753 348.172 378.125 347.788C378.497 347.404 378.965 347.212 379.529 347.212Z" fill="white"/>
<path d="M540.975 343.264C539.943 343.264 539.175 343.708 538.659 344.62C538.203 345.388 537.975 346.42 537.975 347.716C537.975 349.012 538.203 350.044 538.659 350.812C539.175 351.712 539.943 352.168 540.975 352.168C541.995 352.168 542.763 351.712 543.291 350.812C543.747 350.044 543.975 349.012 543.975 347.716C543.975 346.42 543.747 345.388 543.291 344.62C542.763 343.708 541.995 343.264 540.975 343.264ZM540.975 344.104C541.743 344.104 542.295 344.512 542.631 345.34C542.871 345.916 543.003 346.708 543.003 347.716C543.003 348.712 542.871 349.504 542.631 350.092C542.295 350.908 541.743 351.328 540.975 351.328C540.207 351.328 539.655 350.908 539.319 350.092C539.079 349.504 538.959 348.712 538.959 347.716C538.959 346.708 539.079 345.916 539.319 345.34C539.655 344.512 540.207 344.104 540.975 344.104ZM548.474 343.264C547.634 343.264 546.938 343.54 546.398 344.104C545.846 344.656 545.582 345.352 545.582 346.204C545.582 347.032 545.822 347.704 546.314 348.22C546.818 348.76 547.478 349.036 548.306 349.036C548.81 349.036 549.254 348.904 549.638 348.664C550.034 348.412 550.346 348.064 550.562 347.632H550.61C550.61 347.776 550.622 347.884 550.622 347.944C550.622 348.904 550.43 349.708 550.058 350.344C549.662 351.004 549.134 351.34 548.474 351.34C547.466 351.34 546.878 350.848 546.698 349.876H545.726C545.954 351.4 546.866 352.168 548.462 352.168C549.422 352.168 550.19 351.712 550.766 350.824C551.294 349.96 551.57 348.856 551.57 347.488C551.57 346.168 551.318 345.136 550.814 344.416C550.286 343.648 549.506 343.264 548.474 343.264ZM548.498 344.092C549.086 344.092 549.566 344.296 549.926 344.704C550.274 345.088 550.454 345.58 550.454 346.18C550.454 346.768 550.262 347.26 549.902 347.644C549.518 348.028 549.05 348.22 548.498 348.22C547.898 348.22 547.43 348.028 547.082 347.656C546.722 347.296 546.554 346.804 546.554 346.204C546.554 345.58 546.722 345.076 547.082 344.68C547.442 344.284 547.91 344.092 548.498 344.092Z" fill="white"/>
<path d="M709.26 343.432C708.972 343.756 708.636 344.044 708.228 344.308C707.82 344.548 707.412 344.716 707.028 344.824V345.808C707.832 345.568 708.504 345.184 709.044 344.632V352H710.028V343.432H709.26ZM715.436 343.264C714.572 343.264 713.864 343.552 713.336 344.128C712.808 344.692 712.532 345.46 712.532 346.42H713.516C713.528 345.664 713.708 345.088 714.044 344.704C714.356 344.296 714.812 344.104 715.4 344.104C715.952 344.104 716.396 344.248 716.708 344.536C717.02 344.824 717.176 345.22 717.176 345.748C717.176 346.3 716.948 346.816 716.516 347.284C716.288 347.524 715.844 347.872 715.172 348.352C714.26 348.976 713.648 349.492 713.312 349.876C712.736 350.512 712.46 351.22 712.46 352H718.172V351.124H713.672C713.828 350.548 714.452 349.888 715.544 349.156C716.432 348.556 717.02 348.088 717.32 347.776C717.872 347.176 718.16 346.504 718.16 345.76C718.16 345.016 717.896 344.404 717.392 343.948C716.876 343.492 716.228 343.264 715.436 343.264Z" fill="white"/>
<path d="M876.385 343.432C876.097 343.756 875.761 344.044 875.353 344.308C874.945 344.548 874.537 344.716 874.153 344.824V345.808C874.957 345.568 875.629 345.184 876.169 344.632V352H877.153V343.432H876.385ZM880.101 343.432L879.645 348.16H880.581C880.749 347.824 881.013 347.56 881.349 347.392C881.673 347.212 882.033 347.128 882.441 347.128C883.065 347.128 883.557 347.308 883.905 347.692C884.265 348.064 884.457 348.592 884.457 349.276C884.457 349.876 884.253 350.368 883.869 350.752C883.473 351.136 882.981 351.328 882.381 351.328C881.853 351.328 881.409 351.196 881.073 350.944C880.689 350.656 880.473 350.236 880.425 349.696H879.453C879.513 350.476 879.837 351.1 880.437 351.556C880.965 351.964 881.613 352.168 882.369 352.168C883.209 352.168 883.929 351.904 884.505 351.388C885.117 350.836 885.429 350.128 885.429 349.264C885.429 348.34 885.165 347.62 884.661 347.092C884.157 346.576 883.497 346.324 882.681 346.324C882.285 346.324 881.925 346.384 881.589 346.528C881.217 346.672 880.905 346.888 880.665 347.176H880.617L880.905 344.308H885.081V343.432H880.101Z" fill="white"/>
<path d="M1043.51 343.432C1043.22 343.756 1042.89 344.044 1042.48 344.308C1042.07 344.548 1041.66 344.716 1041.28 344.824V345.808C1042.08 345.568 1042.75 345.184 1043.29 344.632V352H1044.28V343.432H1043.51ZM1049.57 343.264C1048.67 343.264 1047.97 343.492 1047.47 343.96C1047 344.38 1046.77 344.908 1046.77 345.532C1046.77 345.988 1046.88 346.372 1047.09 346.684C1047.32 347.02 1047.66 347.272 1048.11 347.428V347.452C1047.66 347.56 1047.29 347.812 1046.97 348.196C1046.64 348.604 1046.47 349.084 1046.47 349.636C1046.47 350.392 1046.73 351.004 1047.26 351.46C1047.8 351.928 1048.57 352.168 1049.57 352.168C1050.55 352.168 1051.32 351.928 1051.87 351.46C1052.4 351.004 1052.66 350.392 1052.66 349.636C1052.66 349.084 1052.49 348.604 1052.16 348.196C1051.85 347.812 1051.46 347.56 1051.02 347.452V347.428C1051.46 347.272 1051.8 347.02 1052.04 346.684C1052.25 346.372 1052.36 345.988 1052.36 345.532C1052.36 344.908 1052.12 344.38 1051.67 343.96C1051.16 343.492 1050.45 343.264 1049.57 343.264ZM1049.57 344.068C1050.17 344.068 1050.65 344.224 1050.99 344.536C1051.28 344.8 1051.44 345.148 1051.44 345.568C1051.44 346 1051.31 346.36 1051.04 346.624C1050.72 346.936 1050.23 347.104 1049.57 347.104C1048.89 347.104 1048.4 346.936 1048.09 346.624C1047.83 346.36 1047.69 346 1047.69 345.568C1047.69 345.148 1047.84 344.8 1048.14 344.536C1048.47 344.224 1048.95 344.068 1049.57 344.068ZM1049.57 347.872C1050.25 347.872 1050.79 348.04 1051.17 348.388C1051.51 348.7 1051.69 349.12 1051.69 349.636C1051.69 350.14 1051.51 350.548 1051.17 350.86C1050.79 351.196 1050.26 351.364 1049.57 351.364C1048.87 351.364 1048.33 351.196 1047.97 350.872C1047.61 350.56 1047.44 350.14 1047.44 349.636C1047.44 349.12 1047.61 348.7 1047.97 348.388C1048.34 348.04 1048.87 347.872 1049.57 347.872Z" fill="white"/>
<path d="M1211.6 343.264C1210.73 343.264 1210.02 343.552 1209.5 344.128C1208.97 344.692 1208.69 345.46 1208.69 346.42H1209.68C1209.69 345.664 1209.87 345.088 1210.2 344.704C1210.52 344.296 1210.97 344.104 1211.56 344.104C1212.11 344.104 1212.56 344.248 1212.87 344.536C1213.18 344.824 1213.34 345.22 1213.34 345.748C1213.34 346.3 1213.11 346.816 1212.68 347.284C1212.45 347.524 1212 347.872 1211.33 348.352C1210.42 348.976 1209.81 349.492 1209.47 349.876C1208.9 350.512 1208.62 351.22 1208.62 352H1214.33V351.124H1209.83C1209.99 350.548 1210.61 349.888 1211.7 349.156C1212.59 348.556 1213.18 348.088 1213.48 347.776C1214.03 347.176 1214.32 346.504 1214.32 345.76C1214.32 345.016 1214.06 344.404 1213.55 343.948C1213.04 343.492 1212.39 343.264 1211.6 343.264ZM1218.23 343.432C1217.94 343.756 1217.61 344.044 1217.2 344.308C1216.79 344.548 1216.38 344.716 1216 344.824V345.808C1216.8 345.568 1217.47 345.184 1218.01 344.632V352H1219V343.432H1218.23Z" fill="white"/>
<path d="M1378.72 343.264C1377.86 343.264 1377.15 343.552 1376.62 344.128C1376.09 344.692 1375.82 345.46 1375.82 346.42H1376.8C1376.81 345.664 1376.99 345.088 1377.33 344.704C1377.64 344.296 1378.1 344.104 1378.68 344.104C1379.24 344.104 1379.68 344.248 1379.99 344.536C1380.3 344.824 1380.46 345.22 1380.46 345.748C1380.46 346.3 1380.23 346.816 1379.8 347.284C1379.57 347.524 1379.13 347.872 1378.46 348.352C1377.54 348.976 1376.93 349.492 1376.6 349.876C1376.02 350.512 1375.74 351.22 1375.74 352H1381.46V351.124H1376.96C1377.11 350.548 1377.74 349.888 1378.83 349.156C1379.72 348.556 1380.3 348.088 1380.6 347.776C1381.16 347.176 1381.44 346.504 1381.44 345.76C1381.44 345.016 1381.18 344.404 1380.68 343.948C1380.16 343.492 1379.51 343.264 1378.72 343.264ZM1386.28 343.264C1385.46 343.264 1384.8 343.492 1384.3 343.96C1383.77 344.428 1383.46 345.076 1383.39 345.904H1384.36C1384.42 345.328 1384.61 344.884 1384.95 344.572C1385.27 344.26 1385.72 344.116 1386.29 344.116C1386.84 344.116 1387.29 344.248 1387.6 344.536C1387.89 344.8 1388.04 345.172 1388.04 345.652C1388.04 346.132 1387.89 346.504 1387.59 346.768C1387.29 347.02 1386.86 347.152 1386.28 347.152H1385.62V347.92H1386.32C1386.92 347.92 1387.37 348.052 1387.71 348.34C1388.04 348.628 1388.21 349.024 1388.21 349.54C1388.21 350.044 1388.03 350.464 1387.7 350.8C1387.32 351.148 1386.83 351.328 1386.22 351.328C1385.68 351.328 1385.24 351.172 1384.88 350.884C1384.46 350.536 1384.23 350.02 1384.2 349.348H1383.21C1383.28 350.308 1383.62 351.04 1384.23 351.544C1384.74 351.952 1385.4 352.168 1386.22 352.168C1387.11 352.168 1387.83 351.916 1388.38 351.412C1388.92 350.92 1389.2 350.284 1389.2 349.504C1389.2 349 1389.05 348.58 1388.76 348.244C1388.5 347.908 1388.12 347.668 1387.61 347.512C1388.55 347.2 1389.02 346.552 1389.02 345.592C1389.02 344.872 1388.76 344.308 1388.27 343.888C1387.77 343.468 1387.1 343.264 1386.28 343.264Z" fill="white"/>
<path d="M51 280.19L109.721 263.209L167.393 236.24L225.066 176.309L283.787 94.404L341.459 48.457L400.18 31.4766L458.901 40.4662L516.574 55.4489L575.295 78.4224L632.967 84.4155L691.688 99.3982L749.36 115.38L808.081 117.377L865.754 135.357L923.426 161.327L982.147 146.344L1039.82 161.327L1098.54 172.314L1156.21 181.304L1214.93 219.26L1272.61 255.218L1331.33 264.208L1389 276.194" stroke="#E07001" stroke-width="2" stroke-linecap="round" stroke-linejoin="round"/>
<path d="M51 280.189L109.721 263.209L167.393 236.24L225.066 176.309L283.787 94.4035L341.459 48.4565L400.18 31.4761L458.901 40.4657L516.574 55.4484L575.295 78.4219L632.967 84.415L691.688 99.3977L749.36 115.379L808.082 117.377L865.754 135.356L923.426 161.326L982.147 146.344L1039.82 161.326L1098.54 172.314L1156.21 181.303L1214.93 219.259L1272.61 255.218L1331.33 264.208L1389 276.194" stroke="#E07001" stroke-width="6" stroke-linecap="round" stroke-linejoin="round" stroke-dasharray="0.01 30"/>
<path d="M51 280.189L109.721 263.209L167.393 236.24L225.066 176.309L283.787 94.4035L341.459 48.4565L400.18 31.4761L458.901 40.4657L516.574 55.4484L575.295 78.4219L632.967 84.415L691.688 99.3977L749.36 115.379L808.081 117.377L865.754 135.356L923.426 161.326L982.147 146.344L1039.82 161.326L1098.54 172.314L1156.21 181.303L1214.93 219.259L1272.61 255.218L1331.33 264.208L1389 276.194" stroke="white" stroke-width="4" stroke-linecap="round" stroke-linejoin="round" stroke-dasharray="0.01 30"/>
</svg>
