<svg width="333" height="79" viewBox="0 0 333 79" fill="none" xmlns="http://www.w3.org/2000/svg">
<rect opacity="0.8" x="9" y="9.27979" width="9" height="62.1633" fill="#8979FF"/>
<rect opacity="0.8" x="19.5238" y="62.9434" width="9" height="8.63037" fill="#FF928A"/>
<rect opacity="0.8" x="30.0476" y="26.46" width="9" height="45.3626" fill="#3CC3DF"/>
<rect opacity="0.8" x="56.5714" y="36.5024" width="9" height="34.8991" fill="#8979FF"/>
<rect opacity="0.8" x="67.0952" y="13.2954" width="9" height="57.783" fill="#FF928A"/>
<rect opacity="0.8" x="77.619" y="21.5371" width="9" height="50.2167" fill="#3CC3DF"/>
<rect opacity="0.8" x="104.143" y="33.0918" width="9" height="38.9636" fill="#8979FF"/>
<rect opacity="0.8" x="114.667" y="46.0786" width="9" height="26.2228" fill="#FF928A"/>
<rect opacity="0.8" x="125.19" y="9.41748" width="9" height="61.6347" fill="#3CC3DF"/>
<rect opacity="0.8" x="151.714" y="7.6167" width="9" height="63.532" fill="#8979FF"/>
<rect opacity="0.8" x="162.238" y="36.1016" width="9" height="36.4346" fill="#FF928A"/>
<rect opacity="0.8" x="172.762" y="19.0132" width="9" height="52.8829" fill="#3CC3DF"/>
<rect opacity="0.8" x="199.286" y="63.5156" width="9" height="8.44037" fill="#8979FF"/>
<rect opacity="0.8" x="209.81" y="54.0771" width="9" height="17.588" fill="#FF928A"/>
<rect opacity="0.8" x="220.333" y="44.7246" width="9" height="27.4084" fill="#3CC3DF"/>
<rect opacity="0.8" x="246.857" y="63.2593" width="9" height="8.4221" fill="#8979FF"/>
<rect opacity="0.8" x="257.381" y="15.4512" width="9" height="55.5264" fill="#FF928A"/>
<rect opacity="0.8" x="267.905" y="33.8213" width="9" height="38.1694" fill="#3CC3DF"/>
<rect opacity="0.8" x="294.429" y="61.9644" width="9" height="10.3811" fill="#8979FF"/>
<rect opacity="0.8" x="304.952" y="26.6177" width="9" height="44.7584" fill="#FF928A"/>
<rect opacity="0.8" x="315.476" y="35.8848" width="9" height="36.2653" fill="#3CC3DF"/>
</svg>
