<svg width="185" height="185" viewBox="0 0 185 185" fill="none" xmlns="http://www.w3.org/2000/svg">
<path d="M24.1693 51.8955C17.9898 48.2235 15.8909 40.1647 20.3933 34.5612C30.388 22.1226 43.4822 12.4198 58.4557 6.49281C77.4837 -1.03906 98.4723 -2.04828 118.135 3.62318C137.798 9.29463 155.025 21.3265 167.119 37.8351C176.636 50.8259 182.551 66.0118 184.386 81.8625C185.213 89.003 179.145 94.7061 171.959 94.5232L151.629 94.0055C144.444 93.8226 138.947 87.741 137.122 80.7883C135.661 75.222 133.162 69.9408 129.715 65.2366C123.684 57.0031 115.092 51.0024 105.285 48.1738C95.4786 45.3452 85.0108 45.8486 75.5208 49.605C70.0987 51.7513 65.1707 54.8902 60.9697 58.8234C55.7224 63.7362 47.8311 65.9562 41.6516 62.2841L24.1693 51.8955Z" fill="#8146F8"/>
<path d="M135.996 159.027C139.93 165.044 138.269 173.204 131.76 176.255C117.225 183.068 101.093 186.014 84.9451 184.691C64.4512 183.012 45.1012 174.551 29.9522 160.647C14.8033 146.743 4.71912 128.187 1.29302 107.912C-1.40651 91.9368 0.148783 75.6115 5.69402 60.5469C8.1771 53.8012 16.1655 51.4485 22.4963 54.8531L40.4067 64.485C46.7375 67.8896 48.9001 75.7968 47.3927 82.8251C46.1759 88.4983 46.0319 94.3887 47.0117 100.187C48.7204 110.299 53.7498 119.553 61.3051 126.488C68.8605 133.422 78.511 137.641 88.7321 138.479C94.5926 138.959 100.449 138.312 105.997 136.615C112.871 134.512 120.934 135.99 124.868 142.006L135.996 159.027Z" fill="#FD5818"/>
<path d="M171.814 97.7122C178.986 98.1836 184.511 104.415 183.038 111.45C181.176 120.349 178.006 128.947 173.614 136.961C169.221 144.975 163.678 152.272 157.178 158.628C152.04 163.654 143.815 162.349 139.559 156.556L127.519 140.168C123.263 134.375 124.705 126.305 129.084 120.605C130.52 118.735 131.815 116.753 132.955 114.674C134.094 112.596 135.068 110.438 135.872 108.221C138.321 101.464 144.349 95.9073 151.521 96.3787L171.814 97.7122Z" fill="#FDF518"/>
</svg>
